<mxfile host="app.diagrams.net" agent="Mozilla/5.0 (Windows NT 10.0; Win64; x64) AppleWebKit/537.36 (KHTML, like Gecko) Chrome/129.0.0.0 Safari/537.36" version="24.7.17" pages="2">
  <diagram name="Lược Đồ ER" id="sQ02l6jSmkCWeNOtDkhF">
    <mxGraphModel dx="1605" dy="1411" grid="0" gridSize="10" guides="1" tooltips="1" connect="1" arrows="1" fold="1" page="0" pageScale="1" pageWidth="827" pageHeight="1169" math="0" shadow="0">
      <root>
        <mxCell id="0" />
        <mxCell id="1" parent="0" />
        <mxCell id="YQySpRiNBeKyikHn3mZi-2" value="có" style="rhombus;whiteSpace=wrap;html=1;" vertex="1" parent="1">
          <mxGeometry x="283" y="-87" width="122" height="111" as="geometry" />
        </mxCell>
        <mxCell id="YQySpRiNBeKyikHn3mZi-15" value="NgayDatHang" style="ellipse;whiteSpace=wrap;html=1;" vertex="1" parent="1">
          <mxGeometry x="584" y="-578" width="90" height="59" as="geometry" />
        </mxCell>
        <mxCell id="YQySpRiNBeKyikHn3mZi-10" value="DonHang" style="rounded=0;whiteSpace=wrap;html=1;container=0;" vertex="1" parent="1">
          <mxGeometry x="534" y="-451" width="120" height="60" as="geometry" />
        </mxCell>
        <mxCell id="YQySpRiNBeKyikHn3mZi-11" value="MaKhachHang" style="ellipse;whiteSpace=wrap;html=1;container=0;" vertex="1" parent="1">
          <mxGeometry x="379" y="-571" width="92" height="52" as="geometry" />
        </mxCell>
        <mxCell id="YQySpRiNBeKyikHn3mZi-13" value="TongTien" style="ellipse;whiteSpace=wrap;html=1;container=0;" vertex="1" parent="1">
          <mxGeometry x="488" y="-577" width="78" height="58" as="geometry" />
        </mxCell>
        <mxCell id="YQySpRiNBeKyikHn3mZi-14" value="&lt;b&gt;MaDonHang&lt;/b&gt;" style="ellipse;whiteSpace=wrap;html=1;container=0;" vertex="1" parent="1">
          <mxGeometry x="692" y="-562" width="89" height="48" as="geometry" />
        </mxCell>
        <mxCell id="YQySpRiNBeKyikHn3mZi-18" value="SanPham" style="rounded=0;whiteSpace=wrap;html=1;" vertex="1" parent="1">
          <mxGeometry x="75" y="-55" width="120" height="60" as="geometry" />
        </mxCell>
        <mxCell id="YQySpRiNBeKyikHn3mZi-19" value="DonVi" style="ellipse;whiteSpace=wrap;html=1;" vertex="1" parent="1">
          <mxGeometry x="162" y="70" width="92" height="52" as="geometry" />
        </mxCell>
        <mxCell id="YQySpRiNBeKyikHn3mZi-20" value="TenSanPham" style="ellipse;whiteSpace=wrap;html=1;" vertex="1" parent="1">
          <mxGeometry x="-47" y="70" width="86" height="58" as="geometry" />
        </mxCell>
        <mxCell id="YQySpRiNBeKyikHn3mZi-21" value="MoTa" style="ellipse;whiteSpace=wrap;html=1;" vertex="1" parent="1">
          <mxGeometry x="61" y="64" width="78" height="58" as="geometry" />
        </mxCell>
        <mxCell id="YQySpRiNBeKyikHn3mZi-22" value="&lt;b&gt;MaSanPham&lt;/b&gt;" style="ellipse;whiteSpace=wrap;html=1;" vertex="1" parent="1">
          <mxGeometry x="-50" y="-12" width="89" height="48" as="geometry" />
        </mxCell>
        <mxCell id="YQySpRiNBeKyikHn3mZi-23" value="Gia" style="ellipse;whiteSpace=wrap;html=1;" vertex="1" parent="1">
          <mxGeometry x="-50" y="-93" width="83" height="54" as="geometry" />
        </mxCell>
        <mxCell id="YQySpRiNBeKyikHn3mZi-26" value="ChiTietDonHang" style="rounded=0;whiteSpace=wrap;html=1;container=0;" vertex="1" parent="1">
          <mxGeometry x="542" y="-67" width="120" height="60" as="geometry" />
        </mxCell>
        <mxCell id="YQySpRiNBeKyikHn3mZi-27" value="&lt;b&gt;IDSanPham&lt;/b&gt;" style="ellipse;whiteSpace=wrap;html=1;container=0;" vertex="1" parent="1">
          <mxGeometry x="745" y="-16" width="92" height="52" as="geometry" />
        </mxCell>
        <mxCell id="YQySpRiNBeKyikHn3mZi-28" value="SoLuong" style="ellipse;whiteSpace=wrap;html=1;container=0;" vertex="1" parent="1">
          <mxGeometry x="735" y="55" width="86" height="58" as="geometry" />
        </mxCell>
        <mxCell id="YQySpRiNBeKyikHn3mZi-30" value="&lt;b&gt;IDDonHang&lt;/b&gt;" style="ellipse;whiteSpace=wrap;html=1;container=0;" vertex="1" parent="1">
          <mxGeometry x="742" y="-81" width="89" height="48" as="geometry" />
        </mxCell>
        <mxCell id="YQySpRiNBeKyikHn3mZi-31" value="có" style="rhombus;whiteSpace=wrap;html=1;" vertex="1" parent="1">
          <mxGeometry x="531" y="-303" width="134" height="136" as="geometry" />
        </mxCell>
        <mxCell id="YQySpRiNBeKyikHn3mZi-32" value="có" style="rhombus;whiteSpace=wrap;html=1;" vertex="1" parent="1">
          <mxGeometry x="306" y="-470" width="114" height="106" as="geometry" />
        </mxCell>
        <mxCell id="YQySpRiNBeKyikHn3mZi-33" value="" style="endArrow=none;html=1;rounded=0;fontSize=12;startSize=8;endSize=8;curved=1;entryX=0;entryY=0.5;entryDx=0;entryDy=0;exitX=1;exitY=0.5;exitDx=0;exitDy=0;" edge="1" parent="1" source="YQySpRiNBeKyikHn3mZi-32" target="YQySpRiNBeKyikHn3mZi-10">
          <mxGeometry width="50" height="50" relative="1" as="geometry">
            <mxPoint x="440" y="-272" as="sourcePoint" />
            <mxPoint x="490" y="-322" as="targetPoint" />
          </mxGeometry>
        </mxCell>
        <mxCell id="YQySpRiNBeKyikHn3mZi-38" value="" style="endArrow=none;html=1;rounded=0;fontSize=12;startSize=8;endSize=8;curved=1;exitX=0;exitY=0.5;exitDx=0;exitDy=0;entryX=1;entryY=0.5;entryDx=0;entryDy=0;" edge="1" parent="1" source="YQySpRiNBeKyikHn3mZi-2" target="YQySpRiNBeKyikHn3mZi-18">
          <mxGeometry width="50" height="50" relative="1" as="geometry">
            <mxPoint x="394" y="-322" as="sourcePoint" />
            <mxPoint x="444" y="-372" as="targetPoint" />
          </mxGeometry>
        </mxCell>
        <mxCell id="YQySpRiNBeKyikHn3mZi-39" value="" style="endArrow=none;html=1;rounded=0;fontSize=12;startSize=8;endSize=8;curved=1;exitX=1;exitY=0.5;exitDx=0;exitDy=0;entryX=0;entryY=0.5;entryDx=0;entryDy=0;" edge="1" parent="1" source="YQySpRiNBeKyikHn3mZi-2" target="YQySpRiNBeKyikHn3mZi-26">
          <mxGeometry width="50" height="50" relative="1" as="geometry">
            <mxPoint x="394" y="-322" as="sourcePoint" />
            <mxPoint x="444" y="-372" as="targetPoint" />
          </mxGeometry>
        </mxCell>
        <mxCell id="YQySpRiNBeKyikHn3mZi-40" value="" style="endArrow=none;html=1;rounded=0;fontSize=12;startSize=8;endSize=8;curved=1;exitX=0.5;exitY=1;exitDx=0;exitDy=0;entryX=0.5;entryY=0;entryDx=0;entryDy=0;" edge="1" parent="1" source="YQySpRiNBeKyikHn3mZi-31" target="YQySpRiNBeKyikHn3mZi-26">
          <mxGeometry width="50" height="50" relative="1" as="geometry">
            <mxPoint x="394" y="-322" as="sourcePoint" />
            <mxPoint x="444" y="-372" as="targetPoint" />
          </mxGeometry>
        </mxCell>
        <mxCell id="YQySpRiNBeKyikHn3mZi-41" value="" style="endArrow=none;html=1;rounded=0;fontSize=12;startSize=8;endSize=8;curved=1;exitX=0.5;exitY=1;exitDx=0;exitDy=0;entryX=0.5;entryY=0;entryDx=0;entryDy=0;" edge="1" parent="1" source="YQySpRiNBeKyikHn3mZi-10" target="YQySpRiNBeKyikHn3mZi-31">
          <mxGeometry width="50" height="50" relative="1" as="geometry">
            <mxPoint x="394" y="-322" as="sourcePoint" />
            <mxPoint x="444" y="-372" as="targetPoint" />
          </mxGeometry>
        </mxCell>
        <mxCell id="YQySpRiNBeKyikHn3mZi-42" value="" style="endArrow=none;html=1;rounded=0;fontSize=12;startSize=8;endSize=8;curved=1;exitX=1;exitY=0.5;exitDx=0;exitDy=0;entryX=0;entryY=0.5;entryDx=0;entryDy=0;" edge="1" parent="1" source="YQySpRiNBeKyikHn3mZi-1" target="YQySpRiNBeKyikHn3mZi-32">
          <mxGeometry width="50" height="50" relative="1" as="geometry">
            <mxPoint x="394" y="-322" as="sourcePoint" />
            <mxPoint x="444" y="-372" as="targetPoint" />
          </mxGeometry>
        </mxCell>
        <mxCell id="YQySpRiNBeKyikHn3mZi-46" value="" style="endArrow=none;html=1;rounded=0;fontSize=12;startSize=8;endSize=8;curved=1;exitX=0.5;exitY=0;exitDx=0;exitDy=0;entryX=0.5;entryY=1;entryDx=0;entryDy=0;" edge="1" parent="1" source="YQySpRiNBeKyikHn3mZi-19" target="YQySpRiNBeKyikHn3mZi-18">
          <mxGeometry width="50" height="50" relative="1" as="geometry">
            <mxPoint x="518" y="-322" as="sourcePoint" />
            <mxPoint x="568" y="-372" as="targetPoint" />
          </mxGeometry>
        </mxCell>
        <mxCell id="YQySpRiNBeKyikHn3mZi-47" value="" style="endArrow=none;html=1;rounded=0;fontSize=12;startSize=8;endSize=8;curved=1;exitX=0.635;exitY=0.03;exitDx=0;exitDy=0;exitPerimeter=0;entryX=0.5;entryY=1;entryDx=0;entryDy=0;" edge="1" parent="1" source="YQySpRiNBeKyikHn3mZi-21" target="YQySpRiNBeKyikHn3mZi-18">
          <mxGeometry width="50" height="50" relative="1" as="geometry">
            <mxPoint x="518" y="-322" as="sourcePoint" />
            <mxPoint x="568" y="-372" as="targetPoint" />
          </mxGeometry>
        </mxCell>
        <mxCell id="YQySpRiNBeKyikHn3mZi-48" value="" style="endArrow=none;html=1;rounded=0;fontSize=12;startSize=8;endSize=8;curved=1;exitX=1;exitY=0;exitDx=0;exitDy=0;entryX=0;entryY=0.5;entryDx=0;entryDy=0;" edge="1" parent="1" source="YQySpRiNBeKyikHn3mZi-20" target="YQySpRiNBeKyikHn3mZi-18">
          <mxGeometry width="50" height="50" relative="1" as="geometry">
            <mxPoint x="518" y="-322" as="sourcePoint" />
            <mxPoint x="568" y="-372" as="targetPoint" />
          </mxGeometry>
        </mxCell>
        <mxCell id="YQySpRiNBeKyikHn3mZi-49" value="" style="endArrow=none;html=1;rounded=0;fontSize=12;startSize=8;endSize=8;curved=1;exitX=0;exitY=0.5;exitDx=0;exitDy=0;entryX=0.966;entryY=0.396;entryDx=0;entryDy=0;entryPerimeter=0;" edge="1" parent="1" source="YQySpRiNBeKyikHn3mZi-18" target="YQySpRiNBeKyikHn3mZi-22">
          <mxGeometry width="50" height="50" relative="1" as="geometry">
            <mxPoint x="518" y="-322" as="sourcePoint" />
            <mxPoint x="568" y="-372" as="targetPoint" />
          </mxGeometry>
        </mxCell>
        <mxCell id="YQySpRiNBeKyikHn3mZi-50" value="" style="endArrow=none;html=1;rounded=0;fontSize=12;startSize=8;endSize=8;curved=1;exitX=0;exitY=0.5;exitDx=0;exitDy=0;entryX=1;entryY=0.5;entryDx=0;entryDy=0;" edge="1" parent="1" source="YQySpRiNBeKyikHn3mZi-18" target="YQySpRiNBeKyikHn3mZi-23">
          <mxGeometry width="50" height="50" relative="1" as="geometry">
            <mxPoint x="518" y="-322" as="sourcePoint" />
            <mxPoint x="568" y="-372" as="targetPoint" />
          </mxGeometry>
        </mxCell>
        <mxCell id="YQySpRiNBeKyikHn3mZi-51" value="" style="endArrow=none;html=1;rounded=0;fontSize=12;startSize=8;endSize=8;curved=1;exitX=1;exitY=0.5;exitDx=0;exitDy=0;entryX=0;entryY=0.5;entryDx=0;entryDy=0;" edge="1" parent="1" source="YQySpRiNBeKyikHn3mZi-26" target="YQySpRiNBeKyikHn3mZi-28">
          <mxGeometry width="50" height="50" relative="1" as="geometry">
            <mxPoint x="518" y="-322" as="sourcePoint" />
            <mxPoint x="568" y="-372" as="targetPoint" />
          </mxGeometry>
        </mxCell>
        <mxCell id="YQySpRiNBeKyikHn3mZi-52" value="" style="endArrow=none;html=1;rounded=0;fontSize=12;startSize=8;endSize=8;curved=1;exitX=1;exitY=0.5;exitDx=0;exitDy=0;entryX=0;entryY=0.5;entryDx=0;entryDy=0;" edge="1" parent="1" source="YQySpRiNBeKyikHn3mZi-26" target="YQySpRiNBeKyikHn3mZi-27">
          <mxGeometry width="50" height="50" relative="1" as="geometry">
            <mxPoint x="518" y="-322" as="sourcePoint" />
            <mxPoint x="568" y="-372" as="targetPoint" />
          </mxGeometry>
        </mxCell>
        <mxCell id="YQySpRiNBeKyikHn3mZi-53" value="" style="endArrow=none;html=1;rounded=0;fontSize=12;startSize=8;endSize=8;curved=1;exitX=1;exitY=0.5;exitDx=0;exitDy=0;entryX=0;entryY=0.5;entryDx=0;entryDy=0;" edge="1" parent="1" source="YQySpRiNBeKyikHn3mZi-26" target="YQySpRiNBeKyikHn3mZi-30">
          <mxGeometry width="50" height="50" relative="1" as="geometry">
            <mxPoint x="518" y="-322" as="sourcePoint" />
            <mxPoint x="568" y="-372" as="targetPoint" />
          </mxGeometry>
        </mxCell>
        <mxCell id="YQySpRiNBeKyikHn3mZi-54" value="" style="endArrow=none;html=1;rounded=0;fontSize=12;startSize=8;endSize=8;curved=1;exitX=0.5;exitY=0;exitDx=0;exitDy=0;entryX=0;entryY=1;entryDx=0;entryDy=0;" edge="1" parent="1" source="YQySpRiNBeKyikHn3mZi-10" target="YQySpRiNBeKyikHn3mZi-14">
          <mxGeometry width="50" height="50" relative="1" as="geometry">
            <mxPoint x="518" y="-322" as="sourcePoint" />
            <mxPoint x="568" y="-372" as="targetPoint" />
          </mxGeometry>
        </mxCell>
        <mxCell id="YQySpRiNBeKyikHn3mZi-55" value="" style="endArrow=none;html=1;rounded=0;fontSize=12;startSize=8;endSize=8;curved=1;exitX=0.5;exitY=0;exitDx=0;exitDy=0;entryX=0;entryY=1;entryDx=0;entryDy=0;" edge="1" parent="1" source="YQySpRiNBeKyikHn3mZi-10" target="YQySpRiNBeKyikHn3mZi-15">
          <mxGeometry width="50" height="50" relative="1" as="geometry">
            <mxPoint x="518" y="-322" as="sourcePoint" />
            <mxPoint x="568" y="-372" as="targetPoint" />
          </mxGeometry>
        </mxCell>
        <mxCell id="YQySpRiNBeKyikHn3mZi-56" value="" style="endArrow=none;html=1;rounded=0;fontSize=12;startSize=8;endSize=8;curved=1;exitX=0.5;exitY=0;exitDx=0;exitDy=0;entryX=0.5;entryY=1;entryDx=0;entryDy=0;" edge="1" parent="1" source="YQySpRiNBeKyikHn3mZi-10" target="YQySpRiNBeKyikHn3mZi-13">
          <mxGeometry width="50" height="50" relative="1" as="geometry">
            <mxPoint x="518" y="-322" as="sourcePoint" />
            <mxPoint x="568" y="-372" as="targetPoint" />
          </mxGeometry>
        </mxCell>
        <mxCell id="YQySpRiNBeKyikHn3mZi-57" value="" style="endArrow=none;html=1;rounded=0;fontSize=12;startSize=8;endSize=8;curved=1;exitX=0.5;exitY=0;exitDx=0;exitDy=0;entryX=1;entryY=1;entryDx=0;entryDy=0;" edge="1" parent="1" source="YQySpRiNBeKyikHn3mZi-10" target="YQySpRiNBeKyikHn3mZi-11">
          <mxGeometry width="50" height="50" relative="1" as="geometry">
            <mxPoint x="518" y="-322" as="sourcePoint" />
            <mxPoint x="568" y="-372" as="targetPoint" />
          </mxGeometry>
        </mxCell>
        <mxCell id="YQySpRiNBeKyikHn3mZi-1" value="KhachHang" style="rounded=0;whiteSpace=wrap;html=1;container=0;" vertex="1" parent="1">
          <mxGeometry x="65" y="-444" width="120" height="60" as="geometry" />
        </mxCell>
        <mxCell id="YQySpRiNBeKyikHn3mZi-3" value="HoVaTen" style="ellipse;whiteSpace=wrap;html=1;container=0;" vertex="1" parent="1">
          <mxGeometry x="11" y="-568" width="92" height="52" as="geometry" />
        </mxCell>
        <mxCell id="YQySpRiNBeKyikHn3mZi-4" value="DiaChi" style="ellipse;whiteSpace=wrap;html=1;container=0;" vertex="1" parent="1">
          <mxGeometry x="123" y="-571" width="86" height="58" as="geometry" />
        </mxCell>
        <mxCell id="YQySpRiNBeKyikHn3mZi-5" value="DienThoai" style="ellipse;whiteSpace=wrap;html=1;container=0;" vertex="1" parent="1">
          <mxGeometry x="226" y="-567" width="78" height="58" as="geometry" />
        </mxCell>
        <mxCell id="YQySpRiNBeKyikHn3mZi-6" value="&lt;b&gt;MaKhachHang&lt;/b&gt;" style="ellipse;whiteSpace=wrap;html=1;container=0;" vertex="1" parent="1">
          <mxGeometry x="-67" y="-509" width="89" height="48" as="geometry" />
        </mxCell>
        <mxCell id="YQySpRiNBeKyikHn3mZi-37" value="" style="endArrow=none;html=1;rounded=0;fontSize=12;startSize=8;endSize=8;curved=1;exitX=0.5;exitY=1;exitDx=0;exitDy=0;entryX=0.5;entryY=0;entryDx=0;entryDy=0;" edge="1" parent="1" source="YQySpRiNBeKyikHn3mZi-5" target="YQySpRiNBeKyikHn3mZi-1">
          <mxGeometry width="50" height="50" relative="1" as="geometry">
            <mxPoint x="384" y="-300" as="sourcePoint" />
            <mxPoint x="434" y="-350" as="targetPoint" />
          </mxGeometry>
        </mxCell>
        <mxCell id="YQySpRiNBeKyikHn3mZi-36" value="" style="endArrow=none;html=1;rounded=0;fontSize=12;startSize=8;endSize=8;curved=1;exitX=0.5;exitY=1;exitDx=0;exitDy=0;entryX=0.5;entryY=0;entryDx=0;entryDy=0;" edge="1" parent="1" source="YQySpRiNBeKyikHn3mZi-4" target="YQySpRiNBeKyikHn3mZi-1">
          <mxGeometry width="50" height="50" relative="1" as="geometry">
            <mxPoint x="384" y="-300" as="sourcePoint" />
            <mxPoint x="434" y="-350" as="targetPoint" />
          </mxGeometry>
        </mxCell>
        <mxCell id="YQySpRiNBeKyikHn3mZi-35" value="" style="endArrow=none;html=1;rounded=0;fontSize=12;startSize=8;endSize=8;curved=1;exitX=0.5;exitY=0;exitDx=0;exitDy=0;entryX=1;entryY=1;entryDx=0;entryDy=0;" edge="1" parent="1" source="YQySpRiNBeKyikHn3mZi-1" target="YQySpRiNBeKyikHn3mZi-3">
          <mxGeometry width="50" height="50" relative="1" as="geometry">
            <mxPoint x="384" y="-300" as="sourcePoint" />
            <mxPoint x="434" y="-350" as="targetPoint" />
          </mxGeometry>
        </mxCell>
        <mxCell id="YQySpRiNBeKyikHn3mZi-34" value="" style="endArrow=none;html=1;rounded=0;fontSize=12;startSize=8;endSize=8;curved=1;exitX=0.5;exitY=0;exitDx=0;exitDy=0;entryX=1;entryY=0.5;entryDx=0;entryDy=0;" edge="1" parent="1" source="YQySpRiNBeKyikHn3mZi-1" target="YQySpRiNBeKyikHn3mZi-6">
          <mxGeometry width="50" height="50" relative="1" as="geometry">
            <mxPoint x="371" y="-322" as="sourcePoint" />
            <mxPoint x="421" y="-372" as="targetPoint" />
          </mxGeometry>
        </mxCell>
      </root>
    </mxGraphModel>
  </diagram>
  <diagram id="XRsZOeSsvvlPLuTSGg8Y" name="Trang-2">
    <mxGraphModel dx="1024" dy="519" grid="0" gridSize="10" guides="1" tooltips="1" connect="1" arrows="1" fold="1" page="0" pageScale="1" pageWidth="827" pageHeight="1169" math="0" shadow="0">
      <root>
        <mxCell id="0" />
        <mxCell id="1" parent="0" />
      </root>
    </mxGraphModel>
  </diagram>
</mxfile>
